<svg width="100" height="130" viewBox="0 0 100 130" fill="none" xmlns="http://www.w3.org/2000/svg"><g id="logo 1" clip-path="url(#clip0_355_2)"><g id="Layer 1"><g id="trasnlate_1" style="transform-origin: center; transform-box: fill-box; animation: translateX2 2s linear infinite alternate;"><path id="Ellipse 1" d="M96.4961 88.117C98.1524 88.117 99.4951 86.7743 99.4951 85.118C99.4951 83.4617 98.1524 82.119 96.4961 82.119C94.8398 82.119 93.4971 83.4617 93.4971 85.118C93.4971 86.7743 94.8398 88.117 96.4961 88.117Z" fill="white"/><path id="Vector" d="M59.1101 2.194L78.2011 42.994H87.4351L79.4351 56.155L99.6281 50.781L88.5281 66.013L96.7981 82.826L94.2501 84.205L84.0501 64.358L89.6321 57.258L71.1701 63.115L79.9911 47.748L76.6141 47.54L59.1101 2.194Z" fill="white"/></g><g id="trasnlate_2" style="transform-origin: center; transform-box: fill-box; animation: translateY 2s linear infinite alternate;"><path id="Path 3" d="M67.6469 87.128H82.1659L51.8399 32.728L35.1169 73.162H47.5169L54.5939 62.004L67.6469 87.128Z" fill="#E4C04B"/><path id="Path 4" d="M28.155 89.248H36.701L11.137 130.001L28.155 89.248Z" fill="#E4C04B"/></g><path id="trasnlate_3" style="transform-origin: center; transform-box: fill-box; animation: translateX 2s linear infinite alternate;" d="M56.61 3.01999L10.864 87.316H61.142L54.067 74.325H29.804L56.61 3.01999Z" fill="white"/><path id="Path 5" d="M48.5079 99.096H42.6919V89.396H48.2829V91.175H44.8759V93.332H48.0479V95.104H44.8759V97.322H48.5079V99.096ZM58.0229 98.447C56.9388 99.0257 55.7211 99.3079 54.4929 99.265C53.8227 99.3015 53.152 99.2054 52.519 98.9823C51.886 98.7593 51.3031 98.4136 50.8039 97.965C50.3428 97.4973 49.9846 96.9384 49.7523 96.3241C49.52 95.7098 49.4187 95.0538 49.4549 94.398C49.4292 93.7087 49.5469 93.0216 49.8006 92.3802C50.0544 91.7388 50.4386 91.1571 50.9289 90.672C51.4533 90.1822 52.0705 89.8024 52.7441 89.555C53.4178 89.3077 54.1341 89.1979 54.8509 89.232C55.7751 89.2152 56.6951 89.3594 57.5699 89.658V91.707C56.7283 91.2511 55.7806 91.0271 54.8239 91.058C54.4136 91.0428 54.0046 91.1135 53.6231 91.2656C53.2417 91.4176 52.8962 91.6477 52.6089 91.941C52.317 92.2574 52.0911 92.6288 51.9443 93.0335C51.7975 93.4382 51.7328 93.868 51.7539 94.298C51.7004 95.1394 51.9757 95.9687 52.5219 96.611C52.7895 96.8868 53.1128 97.1024 53.4702 97.2434C53.8277 97.3845 54.2111 97.4477 54.5949 97.429C55.0209 97.4475 55.4458 97.3714 55.8389 97.206V95.313H53.8969V93.568H58.0219L58.0229 98.447ZM67.2229 89.399L64.0649 95.648V99.097H61.8769V95.689L58.7999 89.4H61.2999L62.8619 93.018C62.8892 93.0847 62.9636 93.3483 63.0849 93.809H63.1119C63.1529 93.5473 63.2234 93.291 63.3219 93.045L64.9109 89.4L67.2229 89.399ZM70.5029 95.756V99.097H68.3149V89.397H71.7369C74.1802 89.397 75.4019 90.427 75.4019 92.487C75.4165 92.9348 75.3294 93.38 75.1472 93.7893C74.965 94.1985 74.6924 94.5612 74.3499 94.85C73.5544 95.4828 72.555 95.8029 71.5399 95.75L70.5029 95.756ZM70.5029 91.076V94.099H71.3619C72.5252 94.099 73.1069 93.5897 73.1069 92.571C73.1069 91.5743 72.5252 91.076 71.3619 91.076H70.5029ZM83.6359 91.176H80.8659V99.095H78.6749V91.176H75.9229V89.397H83.6319L83.6359 91.176Z" fill="white"/><path id="Path 6" d="M6.46384 85.3098L0.353408 82.0704L1.53329 79.8448C1.78976 79.2765 2.20927 78.7973 2.73857 78.4679C2.94557 78.3524 3.17908 78.2927 3.41613 78.2947C3.65319 78.2968 3.88563 78.3605 4.09061 78.4796C4.41337 78.6464 4.65964 78.931 4.77847 79.2743C4.90801 79.6366 4.92975 80.0287 4.84104 80.4031L4.85518 80.4106C5.09778 80.0358 5.46354 79.7574 5.8894 79.6233C6.08512 79.5635 6.29087 79.5437 6.49441 79.5651C6.69795 79.5865 6.8951 79.6486 7.07412 79.7477C7.33309 79.8718 7.55957 80.0546 7.73556 80.2815C7.91155 80.5084 8.03222 80.7732 8.08797 81.0549C8.18849 81.7138 8.05467 82.387 7.70981 82.9574L6.46384 85.3098ZM2.09438 81.2288L3.54424 81.9974L3.86509 81.3922C4.00531 81.1589 4.05757 80.8831 4.01245 80.6147C3.98551 80.4962 3.93197 80.3855 3.85586 80.2908C3.77976 80.1961 3.68309 80.12 3.5732 80.0683C3.12438 79.8303 2.72213 80.0468 2.36646 80.7177L2.09438 81.2288ZM4.56824 82.5403L6.17889 83.3942L6.57281 82.6511C6.73042 82.3918 6.79232 82.0854 6.74778 81.7852C6.72202 81.6576 6.66687 81.5377 6.58669 81.435C6.50652 81.3324 6.40353 81.2499 6.28589 81.194C6.17842 81.1308 6.05738 81.0942 5.93289 81.0872C5.80839 81.0803 5.68404 81.1032 5.5702 81.1541C5.30378 81.2915 5.0914 81.5147 4.96731 81.7875L4.56824 82.5403ZM4.66699 76.4807C4.56615 76.6904 4.38729 76.8523 4.16864 76.9318C4.06901 76.9688 3.96259 76.9838 3.85663 76.9759C3.75067 76.9679 3.64767 76.9373 3.55464 76.8859C3.45972 76.8392 3.37639 76.7719 3.31074 76.6889C3.24509 76.6059 3.19875 76.5094 3.1751 76.4063C3.12621 76.1807 3.16392 75.9449 3.28075 75.7458C3.37998 75.5364 3.55472 75.3723 3.7699 75.2864C3.86841 75.249 3.97397 75.2338 4.07903 75.242C4.18409 75.2501 4.28605 75.2814 4.37761 75.3336C4.47348 75.3809 4.5579 75.4485 4.62498 75.5318C4.69206 75.615 4.7402 75.7119 4.76604 75.8157C4.81917 76.0418 4.78339 76.2797 4.66611 76.4803L4.66699 76.4807ZM10.0761 78.496L9.36178 79.8434L4.99542 77.5286L5.70925 76.1821L10.0761 78.496ZM11.8875 75.3376C11.7395 75.6592 11.5287 75.948 11.2675 76.187C11.0063 76.426 10.6999 76.6104 10.3665 76.7293C10.0345 76.8265 9.68599 76.854 9.34286 76.8102C8.99973 76.7664 8.66936 76.6521 8.37246 76.4746C8.051 76.3265 7.76448 76.1122 7.53169 75.8456C7.2989 75.579 7.12509 75.2662 7.02167 74.9277C6.85106 74.2209 6.96506 73.4752 7.33909 72.8516C7.48605 72.5315 7.69597 72.2442 7.95632 72.0069C8.21667 71.7697 8.52213 71.5872 8.85449 71.4705C9.17788 71.375 9.51744 71.347 9.85212 71.3881C10.1868 71.4293 10.5095 71.5387 10.8001 71.7097C11.1237 71.8598 11.4132 72.0746 11.6506 72.3408C11.8881 72.6071 12.0685 72.9191 12.1808 73.2577C12.274 73.6065 12.2959 73.9705 12.2453 74.3279C12.1947 74.6853 12.0725 75.0289 11.8861 75.338L11.8875 75.3376ZM8.3584 73.4225C8.27645 73.5595 8.22789 73.7138 8.21664 73.873C8.20538 74.0322 8.23175 74.1918 8.29362 74.3389C8.46205 74.6744 8.74056 74.9419 9.08256 75.0967C9.92132 75.5414 10.5201 75.4253 10.8789 74.7486C11.2224 74.1007 10.9635 73.5484 10.1024 73.0919C9.28388 72.6617 8.70209 72.7721 8.35705 73.423L8.3584 73.4225ZM17.1821 65.0922L16.4701 66.4351L13.9821 65.1161C13.3483 64.7801 12.9079 64.8451 12.6609 65.311C12.603 65.4172 12.5725 65.5362 12.5722 65.6572C12.5719 65.7782 12.6018 65.8974 12.6592 66.0039C12.7911 66.2591 13.0022 66.4647 13.2608 66.5899L15.7019 67.8841L14.9886 69.2297L12.4732 67.8962C11.8565 67.5692 11.4268 67.6346 11.1842 68.0923C11.1243 68.198 11.0912 68.3168 11.0878 68.4383C11.0843 68.5597 11.1107 68.6802 11.1645 68.7892C11.3037 69.0533 11.526 69.2642 11.797 69.3894L14.2223 70.6751L13.5071 72.0243L9.1407 69.7095L9.85499 68.3621L10.5371 68.7237L10.546 68.7069C10.3829 68.4305 10.2937 68.1169 10.2867 67.7961C10.2798 67.4753 10.3555 67.1581 10.5064 66.875C10.6309 66.5942 10.8429 66.3613 11.1107 66.2109C11.3785 66.0605 11.6877 66.0009 11.9922 66.0408C11.8128 65.7581 11.7144 65.4315 11.7078 65.0967C11.7013 64.7619 11.7869 64.4318 11.9552 64.1423C12.4585 63.1928 13.2957 63.0284 14.4666 63.6492L17.1821 65.0922ZM18.0273 59.1488L16.5172 61.9973C17.1751 62.2879 17.7037 62.0566 18.1031 61.3032C18.3505 60.8612 18.4659 60.3575 18.4356 59.8519L19.4074 60.3671C19.3826 60.9819 19.2075 61.5812 18.8975 62.1126C18.7573 62.4214 18.5558 62.6985 18.3054 62.9272C18.055 63.1559 17.7608 63.3314 17.4405 63.4432C17.1142 63.5294 16.7737 63.5488 16.4397 63.5003C16.1056 63.4517 15.7848 63.3362 15.4964 63.1606C15.1728 63.0103 14.8829 62.7959 14.6443 62.5306C14.4056 62.2652 14.2232 61.9542 14.108 61.6164C14.0079 61.3055 13.973 60.9774 14.0053 60.6523C14.0375 60.3273 14.1364 60.0125 14.2957 59.7273C14.4236 59.446 14.6103 59.1955 14.8432 58.9925C15.0762 58.7895 15.3499 58.6389 15.6461 58.5508C16.2666 58.4115 16.917 58.5167 17.462 58.8446L18.0273 59.1488ZM16.5381 59.9597C15.9125 59.6281 15.4656 59.7152 15.1974 60.2212C15.1404 60.3284 15.1079 60.447 15.1023 60.5683C15.0967 60.6897 15.1181 60.8107 15.165 60.9227C15.2678 61.1848 15.4482 61.4092 15.6821 61.5658L16.5381 59.9597ZM22.5171 55.0289L21.8023 56.3771L21.2015 56.0586L21.1926 56.0754C21.3443 56.3382 21.4233 56.6366 21.4216 56.94C21.4198 57.2434 21.3374 57.5409 21.1828 57.8019C21.0598 58.0556 20.8812 58.2783 20.6603 58.4533C20.4393 58.6284 20.1817 58.7513 19.9066 58.8129C19.2578 58.9266 18.5898 58.7998 18.0277 58.4563C17.3853 58.1559 16.8728 57.6339 16.5843 56.986C16.4651 56.6988 16.4135 56.388 16.4334 56.0777C16.4533 55.7674 16.5441 55.4659 16.699 55.1962C16.8004 54.9509 16.9702 54.7398 17.1881 54.588C17.4059 54.4363 17.6628 54.3503 17.9281 54.3402L17.937 54.3234L15.3403 52.9468L16.0546 51.5994L22.5171 55.0289ZM19.694 55.23L19.3627 55.0544C19.1091 54.9086 18.8101 54.8631 18.5247 54.927C18.3842 54.9641 18.2536 55.0316 18.1421 55.1249C18.0307 55.2182 17.9412 55.3349 17.88 55.4667C17.8187 55.5985 17.7873 55.7421 17.7879 55.8874C17.7885 56.0328 17.8211 56.1762 17.8835 56.3074C18.0744 56.6426 18.3654 56.9097 18.7156 57.0712C19.0187 57.2567 19.3749 57.336 19.728 57.2966C19.8709 57.2676 20.0056 57.2069 20.122 57.119C20.2385 57.0312 20.3338 56.9183 20.4009 56.7888C20.468 56.6593 20.5053 56.5164 20.51 56.3706C20.5147 56.2248 20.4867 56.0798 20.428 55.9462C20.2722 55.6293 20.0128 55.3752 19.6928 55.2259L19.694 55.23ZM23.5447 53.3552C23.4427 53.5629 23.2638 53.7226 23.046 53.8005C22.9455 53.8382 22.838 53.8537 22.731 53.846C22.6239 53.8383 22.5198 53.8075 22.4257 53.7558C22.3289 53.7075 22.2442 53.638 22.1781 53.5523C22.1119 53.4667 22.0661 53.3672 22.0438 53.2613C21.9949 53.0317 22.0325 52.792 22.1493 52.5884C22.2504 52.3774 22.4283 52.213 22.6465 52.1287C22.7479 52.0929 22.8556 52.0784 22.9629 52.0864C23.0701 52.0943 23.1745 52.1244 23.2695 52.1747C23.3645 52.2251 23.4481 52.2947 23.5148 52.379C23.5816 52.4633 23.6301 52.5605 23.6573 52.6645C23.7065 52.8996 23.6655 53.1445 23.5425 53.3507L23.5447 53.3552ZM26.3886 47.7324L24.4448 51.399L18.3317 48.1582L20.2011 44.6321L21.3187 45.2246L20.1796 47.3733L21.5358 48.0923L22.5958 46.0929L23.717 46.6873L22.657 48.6867L24.0547 49.4277L25.2683 47.1385L26.3886 47.7324ZM29.0739 42.6672L28.362 44.0101L25.9332 42.7225C25.2564 42.3637 24.79 42.4258 24.5339 42.9088C24.4731 43.0171 24.4379 43.138 24.431 43.262C24.4241 43.3861 24.4456 43.5101 24.4941 43.6245C24.6042 43.8819 24.8039 44.0908 25.0562 44.2123L27.5504 45.5345L26.8361 46.8819L22.4697 44.5671L23.184 43.2197L23.875 43.586L23.8839 43.5692C23.7079 43.2994 23.61 42.9862 23.6009 42.6642C23.5919 42.3422 23.672 42.024 23.8325 41.7447C24.3449 40.7781 25.2007 40.6127 26.4 41.2485L29.0739 42.6672ZM31.409 37.0563C31.7657 37.2191 32.0843 37.455 32.3441 37.7487C32.6039 38.0424 32.7991 38.3874 32.917 38.7613C33.0958 39.582 32.9474 40.4401 32.5035 41.1532C32.2704 41.6434 31.9311 42.0756 31.5102 42.4183L30.374 41.816C30.8417 41.5388 31.2261 41.141 31.4872 40.6642C31.7174 40.2903 31.79 39.8402 31.6888 39.4129C31.6289 39.2178 31.5289 39.0375 31.3953 38.8834C31.2616 38.7293 31.0971 38.6048 30.9125 38.518L30.5644 38.3335L30.5555 38.3503C30.7157 38.6133 30.8016 38.9149 30.8037 39.2228C30.8059 39.5308 30.7244 39.8335 30.5679 40.0988C30.4451 40.3555 30.2647 40.5805 30.0408 40.7563C29.8169 40.932 29.5555 41.0538 29.2769 41.1121C28.6426 41.2194 27.9908 41.0966 27.439 40.7659C26.7882 40.4634 26.267 39.9382 25.9694 39.2851C25.8497 38.9996 25.7972 38.6903 25.8162 38.3812C25.8353 38.0721 25.9252 37.7716 26.079 37.5028C26.1907 37.2602 26.3652 37.0519 26.5844 36.8992C26.8036 36.7466 27.0596 36.6553 27.3259 36.6347L27.3348 36.6179L26.8267 36.3486L27.541 35.0012L31.409 37.0563ZM29.1044 37.5391L28.7572 37.355C28.5034 37.2115 28.206 37.1653 27.9206 37.2251C27.7857 37.2519 27.6588 37.3093 27.5496 37.3929C27.4403 37.4764 27.3517 37.5839 27.2905 37.7071C27.2123 37.8424 27.1694 37.9952 27.1657 38.1514C27.162 38.3077 27.1975 38.4623 27.2692 38.6012C27.4628 38.944 27.7601 39.2166 28.1184 39.3797C28.4162 39.5576 28.7643 39.6319 29.1087 39.5912C29.2523 39.5687 29.3884 39.5118 29.5052 39.4253C29.622 39.3388 29.7161 39.2253 29.7795 39.0945C29.852 38.9663 29.8931 38.8228 29.8995 38.6757C29.9059 38.5286 29.8773 38.3821 29.8162 38.2481C29.6679 37.9358 29.4159 37.6846 29.1031 37.5373L29.1044 37.5391ZM27.8092 32.8322C27.7084 33.0419 27.5295 33.2038 27.3109 33.2833C27.2109 33.3201 27.1043 33.3347 26.9981 33.3263C26.892 33.3179 26.789 33.2867 26.696 33.2347C26.6011 33.188 26.5178 33.1207 26.4521 33.0377C26.3865 32.9547 26.3401 32.8582 26.3165 32.755C26.2769 32.5288 26.3139 32.2958 26.4216 32.093C26.5294 31.8902 26.7017 31.7291 26.9113 31.6352C27.01 31.5975 27.1158 31.5822 27.2211 31.5903C27.3264 31.5983 27.4286 31.6296 27.5204 31.6819C27.6162 31.7293 27.7007 31.7969 27.7677 31.8801C27.8348 31.9634 27.883 32.0603 27.9088 32.164C27.9617 32.3908 27.9253 32.6293 27.807 32.8299L27.8092 32.8322ZM33.2183 34.8475L32.5045 36.194L28.1364 33.8783L28.8507 32.5309L33.2183 34.8475ZM36.0549 29.4969L35.3429 30.8399L32.915 29.5527C32.2382 29.194 31.7718 29.2561 31.5158 29.739C31.455 29.8474 31.4197 29.9682 31.4128 30.0923C31.4059 30.2163 31.4275 30.3403 31.4759 30.4547C31.5861 30.7122 31.7858 30.921 32.0381 31.0425L34.5323 32.3648L33.818 33.7122L29.4516 31.3974L30.1659 30.05L30.8568 30.4163L30.8657 30.3995C30.6898 30.1297 30.5919 29.8164 30.5828 29.4944C30.5737 29.1724 30.6539 28.8542 30.8143 28.5749C31.3268 27.6083 32.1826 27.4429 33.3818 28.0787L36.0549 29.4969ZM36.9006 23.5549L35.3933 26.3981C36.0511 26.6887 36.5797 26.4574 36.9791 25.704C37.2249 25.2631 37.3394 24.7611 37.3093 24.2572L38.2812 24.7724C38.2563 25.3871 38.0812 25.9864 37.7712 26.5178C37.631 26.8266 37.4296 27.1038 37.1791 27.3325C36.9287 27.5612 36.6345 27.7367 36.3143 27.8484C35.9877 27.9347 35.6471 27.9541 35.3129 27.9055C34.9786 27.8568 34.6577 27.7412 34.3693 27.5654C34.0456 27.4151 33.7557 27.2007 33.5171 26.9353C33.2785 26.6699 33.0961 26.359 32.9808 26.0212C32.8808 25.7103 32.8458 25.3821 32.8781 25.0571C32.9104 24.7321 33.0093 24.4172 33.1685 24.1321C33.2964 23.8508 33.4831 23.6002 33.716 23.3973C33.949 23.1943 34.2228 23.0437 34.5189 22.9556C35.1395 22.8162 35.7899 22.9215 36.3348 23.2493L36.9006 23.5549ZM35.4113 24.3658C34.7858 24.0342 34.3389 24.1214 34.0707 24.6273C34.0136 24.7346 33.9812 24.8531 33.9756 24.9745C33.97 25.0958 33.9914 25.2168 34.0383 25.3289C34.141 25.5909 34.3214 25.8153 34.5553 25.9719L35.4113 24.3658ZM39.4051 18.8307L37.8959 21.6775C38.552 21.9672 39.0799 21.735 39.4796 20.9811C39.7253 20.5402 39.8399 20.0381 39.8097 19.5342L40.7816 20.0494C40.7568 20.6642 40.5817 21.2635 40.2716 21.7949C40.1314 22.1037 39.93 22.3808 39.6796 22.6095C39.4291 22.8382 39.1349 23.0138 38.8147 23.1255C38.4882 23.2117 38.1475 23.2312 37.8133 23.1825C37.4791 23.1339 37.1581 23.0182 36.8697 22.8425C36.546 22.6921 36.2562 22.4778 36.0175 22.2124C35.7789 21.947 35.5965 21.6361 35.4813 21.2983C35.3818 20.988 35.3472 20.6607 35.3794 20.3365C35.4117 20.0123 35.5102 19.6982 35.6689 19.4136C35.7967 19.1323 35.9834 18.8818 36.2164 18.6788C36.4493 18.4758 36.7231 18.3252 37.0192 18.2371C37.6398 18.0978 38.2902 18.203 38.8352 18.5309L39.4051 18.8307ZM37.9158 19.6416C37.2903 19.31 36.8434 19.3972 36.5752 19.9031C36.5181 20.0104 36.4857 20.129 36.4801 20.2503C36.4745 20.3716 36.4959 20.4927 36.5428 20.6047C36.6455 20.8668 36.8259 21.0912 37.0598 21.2478L37.9158 19.6416ZM39.9883 14.4598C39.8043 14.5863 39.6553 14.7572 39.5551 14.9568C39.4793 15.0856 39.4359 15.2308 39.4285 15.3801C39.4212 15.5293 39.4501 15.6781 39.5128 15.8138C39.6752 16.1273 39.9375 16.3778 40.2581 16.5258L42.3432 17.6312L41.6275 18.9812L37.2611 16.6664L37.9763 15.3173L38.7865 15.7468L38.7954 15.73C38.5738 15.5311 38.4261 15.263 38.3762 14.9694C38.3264 14.6758 38.3773 14.374 38.5208 14.1131C38.576 13.9975 38.6532 13.8939 38.7482 13.808L39.9883 14.4598ZM38.7945 12.1065C38.6937 12.3162 38.5148 12.4781 38.2962 12.5577C38.1966 12.595 38.09 12.6104 37.9839 12.6028C37.8778 12.5951 37.7745 12.5647 37.6813 12.5135C37.5863 12.4668 37.503 12.3995 37.4373 12.3165C37.3717 12.2335 37.3254 12.137 37.3017 12.0338C37.2621 11.8078 37.2989 11.5751 37.4064 11.3723C37.5139 11.1696 37.6859 11.0085 37.8952 10.9144C37.9938 10.8759 38.0998 10.8598 38.2055 10.8673C38.3111 10.8748 38.4138 10.9056 38.5061 10.9576C38.602 11.0049 38.6864 11.0726 38.7535 11.1558C38.8205 11.2391 38.8687 11.336 38.8945 11.4397C38.9481 11.6675 38.9115 11.9073 38.7922 12.1087L38.7945 12.1065ZM44.2036 14.1219L43.4879 15.4719L39.1216 13.1571L39.8359 11.8097L44.2036 14.1219ZM47.0402 8.77126L46.3283 10.1142L43.9021 8.828C43.2253 8.46921 42.7589 8.53132 42.5029 9.01431C42.442 9.12265 42.4068 9.24347 42.3999 9.36753C42.393 9.49158 42.4146 9.61557 42.463 9.73C42.5731 9.98745 42.7729 10.1963 43.0252 10.3178L45.5193 11.64L44.8036 12.9901L40.4373 10.6753L41.1516 9.32791L41.8425 9.69419L41.8523 9.67563C41.6764 9.4058 41.5785 9.09258 41.5694 8.77059C41.5603 8.44859 41.6405 8.13035 41.801 7.85105C42.3134 6.88448 43.1692 6.71908 44.3684 7.35484L47.0402 8.77126ZM49.3753 3.16043C49.732 3.32319 50.0506 3.55905 50.3104 3.85275C50.5702 4.14646 50.7654 4.49146 50.8833 4.8654C51.062 5.68614 50.9137 6.54421 50.4698 7.25732C50.2367 7.74753 49.8974 8.17969 49.4765 8.52244L48.343 7.92149C48.8106 7.64433 49.1951 7.24651 49.4561 6.76972C49.6864 6.39577 49.7589 5.94574 49.6577 5.51839C49.5974 5.32371 49.497 5.14378 49.3631 4.99014C49.2292 4.8365 49.0646 4.71254 48.88 4.6262L48.5319 4.44165L48.523 4.45844C48.6833 4.72142 48.7691 5.02301 48.7713 5.33097C48.7735 5.63893 48.692 5.9417 48.5355 6.20694C48.4126 6.4637 48.2323 6.68869 48.0084 6.86443C47.7845 7.04017 47.5231 7.16193 47.2445 7.22027C46.6101 7.32752 45.9584 7.20475 45.4065 6.87408C44.7553 6.57227 44.2334 6.0475 43.9352 5.39456C43.8154 5.10901 43.763 4.79971 43.782 4.49064C43.801 4.18156 43.8909 3.88102 44.0447 3.61228C44.1564 3.36968 44.3309 3.16131 44.5501 3.00869C44.7693 2.85608 45.0253 2.76476 45.2916 2.74418L45.3005 2.72739L44.7933 2.45853L45.5076 1.11116L49.3753 3.16043ZM47.0707 3.64322L46.7261 3.46055C46.4723 3.31703 46.1749 3.27083 45.8896 3.33057C45.7547 3.35742 45.6277 3.41484 45.5185 3.49839C45.4093 3.58194 45.3206 3.68941 45.2594 3.81255C45.1812 3.94789 45.1383 4.10068 45.1346 4.25692C45.1309 4.41316 45.1665 4.56783 45.2381 4.70673C45.4317 5.04952 45.7291 5.32208 46.0874 5.48521C46.3852 5.66455 46.7341 5.74004 47.0794 5.69986C47.223 5.67739 47.359 5.62047 47.4758 5.53398C47.5926 5.44749 47.6868 5.33399 47.7502 5.20319C47.8224 5.07391 47.8627 4.9293 47.868 4.78132C47.8732 4.63333 47.8432 4.48624 47.7803 4.35217C47.6321 4.04197 47.3814 3.79237 47.0706 3.64546L47.0707 3.64322Z" fill="white"/></g></g><defs><clipPath id="clip0_355_2"><rect width="99.632" height="130" fill="white"/></clipPath></defs><style> @keyframes translateX { 0%, 100% { transform: translateX(0px); } 50% { transform: translateX(2px); } } @keyframes translateX2 { 0%, 100% { transform: translateX(0px); } 50% { transform: translateX(-2px); } } @keyframes translateY { 0%, 100% { transform: translateY(0px); } 50% { transform: translateY(-4px); } }</style></svg>